<svg width="24" height="24" viewBox="0 0 24 24" fill="none" xmlns="http://www.w3.org/2000/svg">
<rect width="24" height="24" rx="12" fill="#E3DB0B"/>
<path fill-rule="evenodd" clip-rule="evenodd" d="M18 8H4V12C4 15.866 7.13401 19 11 19C13.4345 19 15.5787 17.7572 16.8328 15.8715C17.6679 15.9151 18.5977 15.6964 19.4641 15.1962C21.3773 14.0916 22.2566 12.033 21.4282 10.5981C20.8167 9.53891 19.4456 9.11568 18 9.41091V8ZM17.6064 14.3199C17.8614 13.5939 18 12.8131 18 12V10.9565C18.4273 10.8275 18.8324 10.7949 19.1735 10.836C19.7192 10.9017 20.0039 11.1312 20.1292 11.3481C20.2544 11.565 20.3107 11.9263 20.0948 12.4317C19.8787 12.9377 19.4168 13.4914 18.7141 13.8971C18.3383 14.1141 17.9603 14.2502 17.6064 14.3199Z" fill="white"/>
</svg>
