<svg width="60" height="60" viewBox="0 0 60 60" fill="none" xmlns="http://www.w3.org/2000/svg">
<rect width="60" height="60" rx="30" fill="#D7D7D7"/>
<path fill-rule="evenodd" clip-rule="evenodd" d="M45 20H10V30C10 39.665 17.835 47.5 27.5 47.5C33.5862 47.5 38.9467 44.3931 42.0821 39.6788C44.1697 39.7878 46.4943 39.2409 48.6603 37.9904C53.4432 35.229 55.6416 30.0824 53.5705 26.4952C52.0417 23.8473 48.614 22.7892 45 23.5273V20ZM44.0161 35.7997C44.6534 33.9847 45 32.0328 45 30V27.3913C46.0682 27.0687 47.081 26.9872 47.9338 27.0899C49.298 27.2543 50.0099 27.828 50.3229 28.3702C50.636 28.9124 50.7769 29.8157 50.2371 31.0794C49.6967 32.3444 48.542 33.7285 46.7853 34.7428C45.8458 35.2852 44.9008 35.6256 44.0161 35.7997Z" fill="white"/>
</svg>
