<svg width="24" height="24" viewBox="0 0 24 24" fill="none" xmlns="http://www.w3.org/2000/svg">
<rect width="24" height="24" rx="12" fill="#EF865A"/>
<path fill-rule="evenodd" clip-rule="evenodd" d="M7.05025 18.0053C5.7375 16.6925 5 14.9121 5 13.0556C6.85652 13.0556 8.63699 13.7931 9.94975 15.1058C10.6271 15.7831 11.1512 16.5849 11.5 17.4575V13.8065C10.4462 13.693 9.45667 13.223 8.70017 12.4665C7.825 11.5913 7.33333 10.4043 7.33333 9.16667V5.27778C7.90889 5.27778 8.47667 5.37111 9.01333 5.58111C9.44111 5.76 9.82222 6.02444 10.1411 6.35889L12 4.5L13.8589 6.35889C14.1778 6.02444 14.5589 5.76 14.9867 5.58111C15.5228 5.37581 16.0926 5.27292 16.6667 5.27778V9.16667C16.6667 10.4043 16.175 11.5913 15.2998 12.4665C14.5433 13.223 13.5538 13.693 12.5 13.8065V17.4575C12.8488 16.5849 13.3729 15.7831 14.0503 15.1058C15.363 13.7931 17.1435 13.0556 19 13.0556C19 14.9121 18.2625 16.6925 16.9497 18.0053C15.7553 19.1997 14.1738 19.9179 12.5 20.0377V20.0561H11.5V20.0377C9.82624 19.9179 8.24465 19.1997 7.05025 18.0053Z" fill="white"/>
</svg>
