<svg width="60" height="60" viewBox="0 0 60 60" fill="none" xmlns="http://www.w3.org/2000/svg">
<rect width="60" height="60" rx="30" fill="#D7D7D7"/>
<path fill-rule="evenodd" clip-rule="evenodd" d="M17.6256 45.0133C14.3437 41.7314 12.5 37.2802 12.5 32.6389C17.1413 32.6389 21.5925 34.4826 24.8744 37.7645C27.1583 40.0485 28.7458 42.8988 29.5 45.9853V34.5726C26.5876 34.4478 23.8202 33.236 21.7504 31.1662C19.5625 28.9783 18.3333 26.0109 18.3333 22.9167V13.1944C19.7722 13.1944 21.1917 13.4278 22.5333 13.9528C23.6028 14.4 24.5556 15.0611 25.3528 15.8972L30 11.25L34.6472 15.8972C35.4444 15.0611 36.3972 14.4 37.4667 13.9528C38.8069 13.4395 40.2316 13.1823 41.6667 13.1944V22.9167C41.6667 26.0109 40.4375 28.9783 38.2496 31.1662C36.1798 33.236 33.4124 34.4478 30.5 34.5726V45.9853C31.2542 42.8988 32.8417 40.0485 35.1256 37.7645C38.4075 34.4826 42.8587 32.6389 47.5 32.6389C47.5 37.2802 45.6563 41.7314 42.3744 45.0133C39.2105 48.1771 34.96 50.0044 30.5 50.1317V50.1403H29.5V50.1317C25.04 50.0044 20.7895 48.1771 17.6256 45.0133Z" fill="white"/>
</svg>
