<svg width="24" height="24" viewBox="0 0 24 24" fill="none" xmlns="http://www.w3.org/2000/svg">
<g clip-path="url(#clip0_1791_7538)">
<rect width="24" height="24" rx="12" fill="#84D7AE"/>
<path d="M11.3636 12.1786C11.3636 14.4863 9.93909 16.3571 8.18182 16.3571C6.42455 16.3571 5 14.4863 5 12.1786C5 9.87081 6.42455 8 8.18182 8C9.93909 8 11.3636 9.87081 11.3636 12.1786Z" fill="white"/>
<path d="M7.51016 15.0704C7.52996 14.7103 7.82479 14.4286 8.18182 14.4286C8.53884 14.4286 8.83368 14.7103 8.85348 15.0704L9.38395 24.7163C9.42229 25.4134 8.87301 26 8.18182 26C7.49063 26 6.94135 25.4134 6.97969 24.7163L7.51016 15.0704Z" fill="white"/>
<path d="M15.4647 15.0704C15.4845 14.7103 15.7793 14.4286 16.1364 14.4286C16.4934 14.4286 16.7882 14.7103 16.808 15.0704L17.3385 24.7163C17.3768 25.4134 16.8276 26 16.1364 26C15.4452 26 14.8959 25.4134 14.9342 24.7163L15.4647 15.0704Z" fill="white"/>
<path d="M14.2273 8.64286C14.1212 8.75 13.8455 9.15714 13.5909 9.92857C13.2727 10.8929 13.2727 12.8214 13.2727 13.7857C13.2727 14.75 14.2273 16.3571 16.1364 16.3571C18.0455 16.3571 19 14.75 19 13.7857C19 12.8214 19 10.8929 18.6818 9.92857C18.4273 9.15714 18.1515 8.75 18.0455 8.64286V12.1786C18.0455 12.1786 18.0455 12.5 17.7273 12.5C17.4091 12.5 17.4091 12.1786 17.4091 12.1786L17.25 8.64286C17.25 8.32143 17.1545 8 16.8364 8C16.5182 8 16.4545 8.32143 16.4545 8.64286V12.1786C16.4545 12.1786 16.4545 12.5 16.1364 12.5C15.8182 12.5 15.8182 12.1786 15.8182 12.1786V8.64286C15.8182 8.32143 15.7545 8 15.4364 8C15.1182 8 15.0227 8.32143 15.0227 8.64286L14.8636 12.1786C14.8636 12.1786 14.8636 12.5 14.5455 12.5C14.2273 12.5 14.2273 12.1786 14.2273 12.1786V8.64286Z" fill="white"/>
</g>
<defs>
<clipPath id="clip0_1791_7538">
<rect width="24" height="24" rx="12" fill="white"/>
</clipPath>
</defs>
</svg>
