<svg width="60" height="60" viewBox="0 0 60 60" fill="none" xmlns="http://www.w3.org/2000/svg">
<g clip-path="url(#clip0_2063_7370)">
<rect width="60" height="60" rx="30" fill="#D7D7D7"/>
<path d="M28.4091 30.4464C28.4091 36.2158 24.8477 40.8929 20.4545 40.8929C16.0614 40.8929 12.5 36.2158 12.5 30.4464C12.5 24.677 16.0614 20 20.4545 20C24.8477 20 28.4091 24.677 28.4091 30.4464Z" fill="white"/>
<path d="M18.7754 37.6761C18.8249 36.7758 19.562 36.0714 20.4545 36.0714C21.3471 36.0714 22.0842 36.7758 22.1337 37.6761L23.4599 61.7907C23.5557 63.5336 22.1825 65 20.4545 65C18.7266 65 17.3534 63.5336 17.4492 61.7907L18.7754 37.6761Z" fill="white"/>
<path d="M38.6618 37.6761C38.7113 36.7758 39.4483 36.0714 40.3409 36.0714C41.2335 36.0714 41.9706 36.7758 42.0201 37.6761L43.3462 61.7907C43.4421 63.5336 42.0689 65 40.3409 65C38.6129 65 37.2397 63.5336 37.3356 61.7907L38.6618 37.6761Z" fill="white"/>
<path d="M35.5682 21.6071C35.303 21.875 34.6136 22.8929 33.9773 24.8214C33.1818 27.2321 33.1818 32.0536 33.1818 34.4643C33.1818 36.875 35.5682 40.8929 40.3409 40.8929C45.1136 40.8929 47.5 36.875 47.5 34.4643C47.5 32.0536 47.5 27.2321 46.7045 24.8214C46.0682 22.8929 45.3788 21.875 45.1136 21.6071V30.4464C45.1136 30.4464 45.1136 31.25 44.3182 31.25C43.5227 31.25 43.5227 30.4464 43.5227 30.4464L43.125 21.6071C43.125 20.8036 42.8864 20 42.0909 20C41.2955 20 41.1364 20.8036 41.1364 21.6071V30.4464C41.1364 30.4464 41.1364 31.25 40.3409 31.25C39.5455 31.25 39.5455 30.4464 39.5455 30.4464V21.6071C39.5455 20.8036 39.3864 20 38.5909 20C37.7955 20 37.5568 20.8036 37.5568 21.6071L37.1591 30.4464C37.1591 30.4464 37.1591 31.25 36.3636 31.25C35.5682 31.25 35.5682 30.4464 35.5682 30.4464V21.6071Z" fill="white"/>
</g>
<defs>
<clipPath id="clip0_2063_7370">
<rect width="60" height="60" rx="30" fill="white"/>
</clipPath>
</defs>
</svg>
