<svg width="24" height="24" viewBox="0 0 24 24" fill="none" xmlns="http://www.w3.org/2000/svg">
<rect width="24" height="24" rx="12" fill="#8A8FF8"/>
<path fill-rule="evenodd" clip-rule="evenodd" d="M15.381 6.9H17.6C18.37 6.9 19 7.53 19 8.3V16.7C19 17.47 18.37 18.1 17.6 18.1H6.4C5.63 18.1 5 17.47 5 16.7V8.3C5 7.53 5.63 6.9 6.4 6.9H8.619L9.48 5.955C9.746 5.668 10.124 5.5 10.516 5.5H13.484C13.6777 5.50012 13.8693 5.54065 14.0465 5.61899C14.2237 5.69734 14.3826 5.81178 14.513 5.955L15.381 6.9ZM8.5 12.5C8.5 14.432 10.068 16 12 16C13.932 16 15.5 14.432 15.5 12.5C15.5 10.568 13.932 9 12 9C10.068 9 8.5 10.568 8.5 12.5ZM14.0999 12.5023C14.0999 13.6621 13.1597 14.6023 11.9999 14.6023C10.8401 14.6023 9.8999 13.6621 9.8999 12.5023C9.8999 11.3425 10.8401 10.4023 11.9999 10.4023C13.1597 10.4023 14.0999 11.3425 14.0999 12.5023Z" fill="white"/>
</svg>
