<svg width="60" height="60" viewBox="0 0 60 60" fill="none" xmlns="http://www.w3.org/2000/svg">
<rect width="60" height="60" rx="30" fill="#D7D7D7"/>
<path fill-rule="evenodd" clip-rule="evenodd" d="M38.4525 17.25H44C45.925 17.25 47.5 18.825 47.5 20.75V41.75C47.5 43.675 45.925 45.25 44 45.25H16C14.075 45.25 12.5 43.675 12.5 41.75V20.75C12.5 18.825 14.075 17.25 16 17.25H21.5475L23.7 14.8875C24.365 14.17 25.31 13.75 26.29 13.75H33.71C34.1943 13.7503 34.6733 13.8516 35.1162 14.0475C35.5592 14.2433 35.9564 14.5294 36.2825 14.8875L38.4525 17.25ZM21.25 31.25C21.25 36.08 25.17 40 30 40C34.83 40 38.75 36.08 38.75 31.25C38.75 26.42 34.83 22.5 30 22.5C25.17 22.5 21.25 26.42 21.25 31.25ZM35.2498 31.2559C35.2498 34.1554 32.8993 36.5059 29.9998 36.5059C27.1003 36.5059 24.7498 34.1554 24.7498 31.2559C24.7498 28.3564 27.1003 26.0059 29.9998 26.0059C32.8993 26.0059 35.2498 28.3564 35.2498 31.2559Z" fill="white"/>
</svg>
