<svg width="60" height="60" viewBox="0 0 60 60" fill="none" xmlns="http://www.w3.org/2000/svg">
<rect width="60" height="60" rx="30" fill="#D7D7D7"/>
<path d="M18.75 30C18.75 32.0711 17.0711 33.75 15 33.75C12.9289 33.75 11.25 32.0711 11.25 30C11.25 27.9289 12.9289 26.25 15 26.25C17.0711 26.25 18.75 27.9289 18.75 30Z" fill="white"/>
<path d="M33.75 30C33.75 32.0711 32.0711 33.75 30 33.75C27.9289 33.75 26.25 32.0711 26.25 30C26.25 27.9289 27.9289 26.25 30 26.25C32.0711 26.25 33.75 27.9289 33.75 30Z" fill="white"/>
<path d="M48.75 30C48.75 32.0711 47.0711 33.75 45 33.75C42.9289 33.75 41.25 32.0711 41.25 30C41.25 27.9289 42.9289 26.25 45 26.25C47.0711 26.25 48.75 27.9289 48.75 30Z" fill="white"/>
</svg>
